<svg width="440" height="571" viewBox="0 0 440 571" fill="none" xmlns="http://www.w3.org/2000/svg">
<path d="M434.502 55.9595C433.632 55.3795 432.752 54.8295 431.882 54.2695C406.733 38.1853 379.777 25.1187 351.572 15.3395L345.032 105.56H303.572V2.16954C300.962 1.62954 298.332 1.11954 295.702 0.639542V105.56H246.431C219.308 105.56 193.295 94.7847 174.116 75.6054C154.936 56.4261 144.162 30.4133 144.162 3.28966V3.28956C141.522 3.85956 138.902 4.46956 136.282 5.11956V105.56H96.1516L89.9216 19.5296C60.9362 30.6459 33.4188 45.2643 7.98157 63.0596C7.54157 63.3596 7.10157 63.6696 6.67157 63.9696C4.46157 65.5196 2.28157 67.0996 0.111572 68.6996V570.89H118.382L116.292 541.94L104.792 224.99H336.382L324.882 541.94L322.792 570.89H439.752V59.4396C438.012 58.2596 436.262 57.0996 434.502 55.9595ZM136.282 198.74H102.892L96.7216 113.44H136.282V198.74ZM295.702 198.74H239.622V197.05C239.622 196.237 239.461 195.433 239.15 194.682C238.839 193.932 238.383 193.25 237.808 192.676C237.233 192.102 236.551 191.647 235.8 191.337C235.049 191.027 234.244 190.868 233.432 190.87H209.052C208.24 190.869 207.436 191.029 206.686 191.339C205.936 191.65 205.255 192.105 204.681 192.679C204.107 193.253 203.652 193.934 203.341 194.684C203.031 195.434 202.871 196.238 202.872 197.05V198.74H144.162V113.44H295.702V198.74ZM303.572 198.74V113.44H344.462L338.292 198.74H303.572Z" fill="#3F3D56"/>
</svg>
